<mxfile host="Electron" agent="Mozilla/5.0 (Windows NT 10.0; Win64; x64) AppleWebKit/537.36 (KHTML, like Gecko) draw.io/27.0.5 Chrome/134.0.6998.205 Electron/35.3.0 Safari/537.36" version="27.0.5">
  <diagram name="Page-1" id="UQfQ47-jhMwPksH4_KgC">
    <mxGraphModel dx="1426" dy="841" grid="1" gridSize="10" guides="1" tooltips="1" connect="1" arrows="1" fold="1" page="1" pageScale="1" pageWidth="850" pageHeight="1100" math="0" shadow="0">
      <root>
        <mxCell id="0" />
        <mxCell id="1" parent="0" />
        <mxCell id="YzwKbLtSl59Q1x8RQaMl-1" value="Usuario391IAU" style="shape=table;startSize=25;container=1;collapsible=0;childLayout=tableLayout;fixedRows=1;rowLines=1;fontStyle=1;align=center;resizeLast=1;" vertex="1" parent="1">
          <mxGeometry x="20" y="20" width="214" height="301" as="geometry" />
        </mxCell>
        <mxCell id="YzwKbLtSl59Q1x8RQaMl-2" style="shape=tableRow;horizontal=0;startSize=0;swimlaneHead=0;swimlaneBody=0;fillColor=none;collapsible=0;dropTarget=0;points=[[0,0.5],[1,0.5]];portConstraint=eastwest;top=0;left=0;right=0;bottom=0;" vertex="1" parent="YzwKbLtSl59Q1x8RQaMl-1">
          <mxGeometry y="25" width="214" height="46" as="geometry" />
        </mxCell>
        <mxCell id="YzwKbLtSl59Q1x8RQaMl-3" value="int" style="shape=partialRectangle;connectable=0;fillColor=none;top=0;left=0;bottom=0;right=0;align=left;spacingLeft=2;overflow=hidden;fontSize=11;" vertex="1" parent="YzwKbLtSl59Q1x8RQaMl-2">
          <mxGeometry width="36" height="46" as="geometry">
            <mxRectangle width="36" height="46" as="alternateBounds" />
          </mxGeometry>
        </mxCell>
        <mxCell id="YzwKbLtSl59Q1x8RQaMl-4" value="DNI" style="shape=partialRectangle;connectable=0;fillColor=none;top=0;left=0;bottom=0;right=0;align=left;spacingLeft=2;overflow=hidden;fontSize=11;" vertex="1" parent="YzwKbLtSl59Q1x8RQaMl-2">
          <mxGeometry x="36" width="156" height="46" as="geometry">
            <mxRectangle width="156" height="46" as="alternateBounds" />
          </mxGeometry>
        </mxCell>
        <mxCell id="YzwKbLtSl59Q1x8RQaMl-5" value="PK" style="shape=partialRectangle;connectable=0;fillColor=none;top=0;left=0;bottom=0;right=0;align=left;spacingLeft=2;overflow=hidden;fontSize=11;" vertex="1" parent="YzwKbLtSl59Q1x8RQaMl-2">
          <mxGeometry x="192" width="22" height="46" as="geometry">
            <mxRectangle width="22" height="46" as="alternateBounds" />
          </mxGeometry>
        </mxCell>
        <mxCell id="YzwKbLtSl59Q1x8RQaMl-6" style="shape=tableRow;horizontal=0;startSize=0;swimlaneHead=0;swimlaneBody=0;fillColor=none;collapsible=0;dropTarget=0;points=[[0,0.5],[1,0.5]];portConstraint=eastwest;top=0;left=0;right=0;bottom=0;" vertex="1" parent="YzwKbLtSl59Q1x8RQaMl-1">
          <mxGeometry y="71" width="214" height="46" as="geometry" />
        </mxCell>
        <mxCell id="YzwKbLtSl59Q1x8RQaMl-7" value="string" style="shape=partialRectangle;connectable=0;fillColor=none;top=0;left=0;bottom=0;right=0;align=left;spacingLeft=2;overflow=hidden;fontSize=11;" vertex="1" parent="YzwKbLtSl59Q1x8RQaMl-6">
          <mxGeometry width="36" height="46" as="geometry">
            <mxRectangle width="36" height="46" as="alternateBounds" />
          </mxGeometry>
        </mxCell>
        <mxCell id="YzwKbLtSl59Q1x8RQaMl-8" value="Nombre" style="shape=partialRectangle;connectable=0;fillColor=none;top=0;left=0;bottom=0;right=0;align=left;spacingLeft=2;overflow=hidden;fontSize=11;" vertex="1" parent="YzwKbLtSl59Q1x8RQaMl-6">
          <mxGeometry x="36" width="156" height="46" as="geometry">
            <mxRectangle width="156" height="46" as="alternateBounds" />
          </mxGeometry>
        </mxCell>
        <mxCell id="YzwKbLtSl59Q1x8RQaMl-9" value="" style="shape=partialRectangle;connectable=0;fillColor=none;top=0;left=0;bottom=0;right=0;align=left;spacingLeft=2;overflow=hidden;fontSize=11;" vertex="1" parent="YzwKbLtSl59Q1x8RQaMl-6">
          <mxGeometry x="192" width="22" height="46" as="geometry">
            <mxRectangle width="22" height="46" as="alternateBounds" />
          </mxGeometry>
        </mxCell>
        <mxCell id="YzwKbLtSl59Q1x8RQaMl-10" style="shape=tableRow;horizontal=0;startSize=0;swimlaneHead=0;swimlaneBody=0;fillColor=none;collapsible=0;dropTarget=0;points=[[0,0.5],[1,0.5]];portConstraint=eastwest;top=0;left=0;right=0;bottom=0;" vertex="1" parent="YzwKbLtSl59Q1x8RQaMl-1">
          <mxGeometry y="117" width="214" height="46" as="geometry" />
        </mxCell>
        <mxCell id="YzwKbLtSl59Q1x8RQaMl-11" value="string" style="shape=partialRectangle;connectable=0;fillColor=none;top=0;left=0;bottom=0;right=0;align=left;spacingLeft=2;overflow=hidden;fontSize=11;" vertex="1" parent="YzwKbLtSl59Q1x8RQaMl-10">
          <mxGeometry width="36" height="46" as="geometry">
            <mxRectangle width="36" height="46" as="alternateBounds" />
          </mxGeometry>
        </mxCell>
        <mxCell id="YzwKbLtSl59Q1x8RQaMl-12" value="Apellido" style="shape=partialRectangle;connectable=0;fillColor=none;top=0;left=0;bottom=0;right=0;align=left;spacingLeft=2;overflow=hidden;fontSize=11;" vertex="1" parent="YzwKbLtSl59Q1x8RQaMl-10">
          <mxGeometry x="36" width="156" height="46" as="geometry">
            <mxRectangle width="156" height="46" as="alternateBounds" />
          </mxGeometry>
        </mxCell>
        <mxCell id="YzwKbLtSl59Q1x8RQaMl-13" value="" style="shape=partialRectangle;connectable=0;fillColor=none;top=0;left=0;bottom=0;right=0;align=left;spacingLeft=2;overflow=hidden;fontSize=11;" vertex="1" parent="YzwKbLtSl59Q1x8RQaMl-10">
          <mxGeometry x="192" width="22" height="46" as="geometry">
            <mxRectangle width="22" height="46" as="alternateBounds" />
          </mxGeometry>
        </mxCell>
        <mxCell id="YzwKbLtSl59Q1x8RQaMl-14" style="shape=tableRow;horizontal=0;startSize=0;swimlaneHead=0;swimlaneBody=0;fillColor=none;collapsible=0;dropTarget=0;points=[[0,0.5],[1,0.5]];portConstraint=eastwest;top=0;left=0;right=0;bottom=0;" vertex="1" parent="YzwKbLtSl59Q1x8RQaMl-1">
          <mxGeometry y="163" width="214" height="46" as="geometry" />
        </mxCell>
        <mxCell id="YzwKbLtSl59Q1x8RQaMl-15" value="string" style="shape=partialRectangle;connectable=0;fillColor=none;top=0;left=0;bottom=0;right=0;align=left;spacingLeft=2;overflow=hidden;fontSize=11;" vertex="1" parent="YzwKbLtSl59Q1x8RQaMl-14">
          <mxGeometry width="36" height="46" as="geometry">
            <mxRectangle width="36" height="46" as="alternateBounds" />
          </mxGeometry>
        </mxCell>
        <mxCell id="YzwKbLtSl59Q1x8RQaMl-16" value="eMail" style="shape=partialRectangle;connectable=0;fillColor=none;top=0;left=0;bottom=0;right=0;align=left;spacingLeft=2;overflow=hidden;fontSize=11;" vertex="1" parent="YzwKbLtSl59Q1x8RQaMl-14">
          <mxGeometry x="36" width="156" height="46" as="geometry">
            <mxRectangle width="156" height="46" as="alternateBounds" />
          </mxGeometry>
        </mxCell>
        <mxCell id="YzwKbLtSl59Q1x8RQaMl-17" value="" style="shape=partialRectangle;connectable=0;fillColor=none;top=0;left=0;bottom=0;right=0;align=left;spacingLeft=2;overflow=hidden;fontSize=11;" vertex="1" parent="YzwKbLtSl59Q1x8RQaMl-14">
          <mxGeometry x="192" width="22" height="46" as="geometry">
            <mxRectangle width="22" height="46" as="alternateBounds" />
          </mxGeometry>
        </mxCell>
        <mxCell id="YzwKbLtSl59Q1x8RQaMl-18" style="shape=tableRow;horizontal=0;startSize=0;swimlaneHead=0;swimlaneBody=0;fillColor=none;collapsible=0;dropTarget=0;points=[[0,0.5],[1,0.5]];portConstraint=eastwest;top=0;left=0;right=0;bottom=0;" vertex="1" parent="YzwKbLtSl59Q1x8RQaMl-1">
          <mxGeometry y="209" width="214" height="46" as="geometry" />
        </mxCell>
        <mxCell id="YzwKbLtSl59Q1x8RQaMl-19" value="string" style="shape=partialRectangle;connectable=0;fillColor=none;top=0;left=0;bottom=0;right=0;align=left;spacingLeft=2;overflow=hidden;fontSize=11;" vertex="1" parent="YzwKbLtSl59Q1x8RQaMl-18">
          <mxGeometry width="36" height="46" as="geometry">
            <mxRectangle width="36" height="46" as="alternateBounds" />
          </mxGeometry>
        </mxCell>
        <mxCell id="YzwKbLtSl59Q1x8RQaMl-20" value="ContraseÃ±a" style="shape=partialRectangle;connectable=0;fillColor=none;top=0;left=0;bottom=0;right=0;align=left;spacingLeft=2;overflow=hidden;fontSize=11;" vertex="1" parent="YzwKbLtSl59Q1x8RQaMl-18">
          <mxGeometry x="36" width="156" height="46" as="geometry">
            <mxRectangle width="156" height="46" as="alternateBounds" />
          </mxGeometry>
        </mxCell>
        <mxCell id="YzwKbLtSl59Q1x8RQaMl-21" value="" style="shape=partialRectangle;connectable=0;fillColor=none;top=0;left=0;bottom=0;right=0;align=left;spacingLeft=2;overflow=hidden;fontSize=11;" vertex="1" parent="YzwKbLtSl59Q1x8RQaMl-18">
          <mxGeometry x="192" width="22" height="46" as="geometry">
            <mxRectangle width="22" height="46" as="alternateBounds" />
          </mxGeometry>
        </mxCell>
        <mxCell id="YzwKbLtSl59Q1x8RQaMl-22" style="shape=tableRow;horizontal=0;startSize=0;swimlaneHead=0;swimlaneBody=0;fillColor=none;collapsible=0;dropTarget=0;points=[[0,0.5],[1,0.5]];portConstraint=eastwest;top=0;left=0;right=0;bottom=0;" vertex="1" parent="YzwKbLtSl59Q1x8RQaMl-1">
          <mxGeometry y="255" width="214" height="46" as="geometry" />
        </mxCell>
        <mxCell id="YzwKbLtSl59Q1x8RQaMl-23" value="bool" style="shape=partialRectangle;connectable=0;fillColor=none;top=0;left=0;bottom=0;right=0;align=left;spacingLeft=2;overflow=hidden;fontSize=11;" vertex="1" parent="YzwKbLtSl59Q1x8RQaMl-22">
          <mxGeometry width="36" height="46" as="geometry">
            <mxRectangle width="36" height="46" as="alternateBounds" />
          </mxGeometry>
        </mxCell>
        <mxCell id="YzwKbLtSl59Q1x8RQaMl-24" value="Estado" style="shape=partialRectangle;connectable=0;fillColor=none;top=0;left=0;bottom=0;right=0;align=left;spacingLeft=2;overflow=hidden;fontSize=11;" vertex="1" parent="YzwKbLtSl59Q1x8RQaMl-22">
          <mxGeometry x="36" width="156" height="46" as="geometry">
            <mxRectangle width="156" height="46" as="alternateBounds" />
          </mxGeometry>
        </mxCell>
        <mxCell id="YzwKbLtSl59Q1x8RQaMl-25" value="" style="shape=partialRectangle;connectable=0;fillColor=none;top=0;left=0;bottom=0;right=0;align=left;spacingLeft=2;overflow=hidden;fontSize=11;" vertex="1" parent="YzwKbLtSl59Q1x8RQaMl-22">
          <mxGeometry x="192" width="22" height="46" as="geometry">
            <mxRectangle width="22" height="46" as="alternateBounds" />
          </mxGeometry>
        </mxCell>
      </root>
    </mxGraphModel>
  </diagram>
</mxfile>
